<svg width="44" height="32" viewBox="0 0 44 32" fill="none" xmlns="http://www.w3.org/2000/svg">
<path fill-rule="evenodd" clip-rule="evenodd" d="M16 0C22.6037 0 28.3965 4.033 30.8113 9.9358L30.915 10.198L31.2899 10.1325C31.7111 10.0666 32.1378 10.025 32.5683 10.0083L33 10C39.0751 10 44 14.9249 44 21C44 26.9545 39.262 31.8234 33.2943 31.996L33 32H15C14.849 32 14.7019 31.9833 14.5604 31.9515L14.468 31.927L14.2043 31.9002C6.28258 31.0157 0.167206 24.3732 0.00337172 16.3313L0 16C0 7.16344 7.16344 0 16 0ZM16 4C9.37258 4 4 9.37258 4 16C4 22.308 8.88498 27.5284 15.1409 27.9698L15.2192 27.9769L15.2966 27.9869L15.369 28.0002H32.9711L33.2075 27.997C36.9846 27.8876 40 24.7889 40 21C40 17.134 36.866 14 33 14C32.0792 14 31.1875 14.1768 30.359 14.5164C29.2272 14.9802 27.9479 14.3286 27.6577 13.1404C26.3565 7.81445 21.5606 4 16 4ZM16 7C17.1046 7 18 7.89543 18 9C18 10.1046 17.1046 11 16 11C13.2386 11 11 13.2386 11 16C11 17.1046 10.1046 18 9 18C7.89543 18 7 17.1046 7 16C7 11.0294 11.0294 7 16 7Z" fill="url(#paint0_linear_2034_235)"/>
<defs>
<linearGradient id="paint0_linear_2034_235" x1="22" y1="0" x2="22" y2="32" gradientUnits="userSpaceOnUse">
<stop stop-color="white" stop-opacity="0.8"/>
<stop offset="1" stop-color="white"/>
</linearGradient>
</defs>
</svg>
