<svg width="42" height="42" viewBox="0 0 42 42" fill="none" xmlns="http://www.w3.org/2000/svg">
<path fill-rule="evenodd" clip-rule="evenodd" d="M16.8201 0.416391C18.6239 0.0518949 19.9211 2.11126 18.8133 3.58071C16.9969 5.99011 16 8.91679 16 12C16 19.732 22.268 26 30 26C33.0832 26 36.01 25.003 38.4189 23.187C39.8883 22.0791 41.9477 23.3763 41.5833 25.18C39.6189 34.9029 31.0396 42 21 42C9.40202 42 0 32.598 0 21C0 10.9604 7.09707 2.38118 16.8201 0.416391ZM13.034 5.97477L12.8202 6.09037C7.51961 9.00268 4 14.6399 4 21C4 30.3888 11.6112 38 21 38C27.3601 38 32.9973 34.4804 35.9094 29.1799L36.024 28.9648L35.9393 28.9967C34.19 29.6077 32.3386 29.9491 30.4392 29.9947L30 30C20.0589 30 12 21.9411 12 12C12 9.94684 12.3453 7.94463 13.0033 6.06074L13.034 5.97477Z" fill="white"/>
</svg>
