<svg width="44" height="40" viewBox="0 0 44 40" fill="none" xmlns="http://www.w3.org/2000/svg">
<path fill-rule="evenodd" clip-rule="evenodd" d="M31.6053 3.402C30.7724 4.50744 30.3158 5.84813 30.3158 7.26317C30.3158 10.8094 33.1906 13.6842 36.7368 13.6842C38.1518 13.6842 39.4921 13.2277 40.5969 12.395C42.0663 11.2875 44.1254 12.5845 43.7611 14.3881C43.2118 17.1081 41.7375 19.5149 39.6559 21.2412C42.2957 23.2505 44 26.4262 44 30C44 34.158 41.6712 37.9033 38.0438 39.7776C37.0625 40.2847 35.8559 39.9002 35.3489 38.9189C34.8418 37.9376 35.2263 36.731 36.2076 36.224C38.5186 35.0298 40 32.6474 40 30C40 26.134 36.866 23 33 23C32.0792 23 31.1875 23.1768 30.359 23.5164C29.2272 23.9802 27.9479 23.3286 27.6577 22.1404C26.3565 16.8145 21.5606 13 16 13C9.37258 13 4 18.3726 4 25C4 29.9492 7.02363 34.3354 11.5408 36.1447C12.5662 36.5554 13.0645 37.7196 12.6538 38.745C12.2431 39.7704 11.0789 40.2687 10.0535 39.858C4.03114 37.4458 0 31.598 0 25C0 16.1635 7.16344 9.00001 16 9.00001C17.4648 9.00001 18.8898 9.19845 20.2468 9.57173C21.2044 4.92421 24.8586 1.19884 29.6118 0.238068C31.4153 -0.126494 32.7127 1.93244 31.6053 3.402ZM16 16C17.1046 16 18 16.8954 18 18C18 19.1046 17.1046 20 16 20C13.2386 20 11 22.2386 11 25C11 26.1046 10.1046 27 9 27C7.89543 27 7 26.1046 7 25C7 20.0294 11.0294 16 16 16ZM26.359 6.32642L26.3057 6.37976C25.0579 7.64604 24.2346 9.32186 24.0429 11.1688C27.0566 12.9214 29.4616 15.6366 30.8113 18.9358L30.915 19.198L31.2899 19.1325C31.7111 19.0666 32.1378 19.025 32.5683 19.0084L33 19C33.814 19 34.6073 19.0884 35.3709 19.2562L35.1343 19.3633C36.0813 18.9595 36.9302 18.3806 37.6435 17.6703L37.671 17.6404L37.4962 17.6569C37.3704 17.666 37.2442 17.6728 37.1177 17.6774L36.7368 17.6842C30.9815 17.6842 26.3158 13.0186 26.3158 7.26317C26.3158 7.00858 26.325 6.75533 26.3431 6.50378L26.359 6.32642Z" fill="url(#paint0_linear_2034_13)"/>
<defs>
<linearGradient id="paint0_linear_2034_13" x1="22" y1="0.195557" x2="22" y2="40.0019" gradientUnits="userSpaceOnUse">
<stop stop-color="white" stop-opacity="0.8"/>
<stop offset="1" stop-color="white"/>
</linearGradient>
</defs>
</svg>
