<svg width="44" height="40" viewBox="0 0 44 40" fill="none" xmlns="http://www.w3.org/2000/svg">
<path fill-rule="evenodd" clip-rule="evenodd" d="M34 9C39.9651 9 44 13.7665 44 20C44 26.2335 39.9651 31 34 31C29.7455 31 25.4234 27.7373 21.9992 23.402C18.5766 27.7373 14.2545 31 10 31C4.03488 31 0 26.2335 0 20C0 13.7665 4.03488 9 10 9C14.2545 9 18.5766 12.2627 22.0008 16.598C25.4234 12.2627 29.7455 9 34 9ZM10 13C6.40548 13 4 15.8417 4 20C4 24.1583 6.40548 27 10 27C12.8921 27 16.6555 23.9167 19.5089 20.0664L19.557 20L19.5089 19.9336C16.7268 16.1796 13.0797 13.1546 10.2185 13.0057L10 13ZM34 13L33.7815 13.0057C30.9203 13.1546 27.2732 16.1796 24.4911 19.9336L24.443 20L24.4911 20.0664C27.3445 23.9167 31.1079 27 34 27C37.5945 27 40 24.1583 40 20C40 15.8417 37.5945 13 34 13ZM11 6C12.6569 6 14 4.65685 14 3C14 1.34315 12.6569 0 11 0C9.34315 0 8 1.34315 8 3C8 4.65685 9.34315 6 11 6ZM22 6C23.6569 6 25 4.65685 25 3C25 1.34315 23.6569 0 22 0C20.3431 0 19 1.34315 19 3C19 4.65685 20.3431 6 22 6ZM11 40C12.6569 40 14 38.6569 14 37C14 35.3431 12.6569 34 11 34C9.34315 34 8 35.3431 8 37C8 38.6569 9.34315 40 11 40ZM22 40C23.6569 40 25 38.6569 25 37C25 35.3431 23.6569 34 22 34C20.3431 34 19 35.3431 19 37C19 38.6569 20.3431 40 22 40ZM33 6C34.6569 6 36 4.65685 36 3C36 1.34315 34.6569 0 33 0C31.3431 0 30 1.34315 30 3C30 4.65685 31.3431 6 33 6ZM33 40C34.6569 40 36 38.6569 36 37C36 35.3431 34.6569 34 33 34C31.3431 34 30 35.3431 30 37C30 38.6569 31.3431 40 33 40Z" fill="url(#paint0_linear_2034_126)"/>
<defs>
<linearGradient id="paint0_linear_2034_126" x1="22" y1="0" x2="22" y2="40" gradientUnits="userSpaceOnUse">
<stop stop-color="white" stop-opacity="0.8"/>
<stop offset="1" stop-color="white"/>
</linearGradient>
</defs>
</svg>
