<svg width="45" height="44" viewBox="0 0 45 44" fill="none" xmlns="http://www.w3.org/2000/svg">
<path fill-rule="evenodd" clip-rule="evenodd" d="M19.7428 35.1431C20.7195 35.5337 21.2185 36.6081 20.9094 37.5954L20.857 37.7428L18.857 42.7428C18.4467 43.7684 17.2828 44.2672 16.2572 43.857C15.2805 43.4663 14.7815 42.3919 15.0906 41.4046L15.143 41.2572L17.143 36.2572C17.5533 35.2317 18.7172 34.7328 19.7428 35.1431ZM28.7428 35.1431C29.7195 35.5337 30.2185 36.6081 29.9094 37.5954L29.857 37.7428L27.857 42.7428C27.4467 43.7684 26.2828 44.2672 25.2572 43.857C24.2805 43.4663 23.7815 42.3919 24.0906 41.4046L24.143 41.2572L26.143 36.2572C26.5533 35.2317 27.7172 34.7328 28.7428 35.1431ZM31 5C35.9706 5 40 9.02944 40 14C40 15.6531 39.551 17.2374 38.7314 18.6098C41.8912 20.5418 44 24.0246 44 28C44 32.158 41.6712 35.9033 38.0438 37.7776C37.0625 38.2847 35.8559 37.9002 35.3489 36.9189C34.8418 35.9376 35.2263 34.731 36.2076 34.224C38.5186 33.0298 40 30.6474 40 28C40 24.134 36.866 21 33 21C32.0792 21 31.1875 21.1768 30.359 21.5164C29.2272 21.9802 27.9479 21.3286 27.6577 20.1404C26.3565 14.8145 21.5606 11 16 11C9.37258 11 4 16.3726 4 23C4 27.9492 7.02363 32.3354 11.5408 34.1447C12.5662 34.5554 13.0645 35.7196 12.6538 36.745C12.2431 37.7704 11.0789 38.2687 10.0535 37.858C4.03114 35.4458 0 29.598 0 23C0 14.1634 7.16344 7 16 7C18.7247 7 21.3114 7.68659 23.5797 8.90781C23.8911 8.45272 24.2449 8.02716 24.636 7.63604C26.3117 5.96041 28.5823 5 31 5ZM16 14C17.1046 14 18 14.8954 18 16C18 17.1046 17.1046 18 16 18C13.2386 18 11 20.2386 11 23C11 24.1046 10.1046 25 9 25C7.89543 25 7 24.1046 7 23C7 18.0294 11.0294 14 16 14ZM42.8177 14.0838C43.9223 14.0838 44.8177 14.9792 44.8177 16.0838C44.8177 17.1884 43.9223 18.0838 42.8177 18.0838C41.7131 18.0838 40.8177 17.1884 40.8177 16.0838C40.8177 14.9792 41.7131 14.0838 42.8177 14.0838ZM31 9C29.6541 9 28.3974 9.53154 27.4645 10.4645C27.2303 10.6986 27.0203 10.9547 26.8374 11.2287C28.544 12.7983 29.912 14.7374 30.8113 16.9358L30.915 17.198L31.2899 17.1325C31.7111 17.0666 32.1378 17.025 32.5683 17.0084L33 17C33.639 17 34.2653 17.0545 34.8745 17.1591C35.5964 16.2778 36 15.1728 36 14C36 11.2386 33.7614 9 31 9ZM40.8298 5.11709C41.9344 5.11709 42.8298 6.01252 42.8298 7.11709C42.8298 8.22166 41.9344 9.11709 40.8298 9.11709C39.7253 9.11709 38.8298 8.22166 38.8298 7.11709C38.8298 6.01252 39.7253 5.11709 40.8298 5.11709ZM24.1171 2.17018C25.2217 2.17018 26.1171 3.06561 26.1171 4.17018C26.1171 5.27475 25.2217 6.17018 24.1171 6.17018C23.0125 6.17018 22.1171 5.27475 22.1171 4.17018C22.1171 3.06561 23.0125 2.17018 24.1171 2.17018ZM33.0838 0.182312C34.1883 0.182312 35.0838 1.07774 35.0838 2.18231C35.0838 3.28688 34.1883 4.18231 33.0838 4.18231C31.9792 4.18231 31.0838 3.28688 31.0838 2.18231C31.0838 1.07774 31.9792 0.182312 33.0838 0.182312Z" fill="url(#paint0_linear_2034_236)"/>
<defs>
<linearGradient id="paint0_linear_2034_236" x1="22.4088" y1="0.182312" x2="22.4088" y2="44.0005" gradientUnits="userSpaceOnUse">
<stop stop-color="white" stop-opacity="0.8"/>
<stop offset="1" stop-color="white"/>
</linearGradient>
</defs>
</svg>
