<svg width="44" height="45" viewBox="0 0 44 45" fill="none" xmlns="http://www.w3.org/2000/svg">
<path fill-rule="evenodd" clip-rule="evenodd" d="M19.7428 36.1431C20.7195 36.5337 21.2185 37.6081 20.9094 38.5954L20.857 38.7428L18.857 43.7428C18.4467 44.7684 17.2828 45.2672 16.2572 44.857C15.2805 44.4663 14.7815 43.3919 15.0906 42.4046L15.143 42.2572L17.143 37.2572C17.5533 36.2317 18.7172 35.7328 19.7428 36.1431ZM28.7428 36.1431C29.7195 36.5337 30.2185 37.6081 29.9094 38.5954L29.857 38.7428L27.857 43.7428C27.4467 44.7684 26.2828 45.2672 25.2572 44.857C24.2805 44.4663 23.7815 43.3919 24.0906 42.4046L24.143 42.2572L26.143 37.2572C26.5533 36.2317 27.7172 35.7328 28.7428 36.1431ZM31.6053 3.402C30.7724 4.50744 30.3158 5.84813 30.3158 7.26317C30.3158 10.8094 33.1906 13.6842 36.7368 13.6842C38.1518 13.6842 39.4921 13.2277 40.5969 12.395C42.0663 11.2875 44.1254 12.5845 43.7611 14.3881C43.265 16.8447 42.0143 19.0459 40.2432 20.721C42.5456 22.7368 44 25.6986 44 29C44 33.158 41.6712 36.9033 38.0438 38.7776C37.0625 39.2847 35.8559 38.9002 35.3489 37.9189C34.8418 36.9376 35.2263 35.731 36.2076 35.224C38.5186 34.0298 40 31.6474 40 29C40 25.134 36.866 22 33 22C32.0792 22 31.1875 22.1768 30.359 22.5164C29.2272 22.9802 27.9479 22.3286 27.6577 21.1404C26.3565 15.8145 21.5606 12 16 12C9.37258 12 4 17.3726 4 24C4 28.9492 7.02363 33.3354 11.5408 35.1447C12.5662 35.5554 13.0645 36.7196 12.6538 37.745C12.2431 38.7704 11.0789 39.2687 10.0535 38.858C4.03114 36.4458 0 30.598 0 24C0 15.1635 7.16344 8.00001 16 8.00001C17.549 8.00001 19.0533 8.2219 20.4799 8.63776C21.7061 4.43073 25.1816 1.13356 29.6118 0.238068C31.4153 -0.126494 32.7127 1.93244 31.6053 3.402ZM16 15C17.1046 15 18 15.8954 18 17C18 18.1046 17.1046 19 16 19C13.2386 19 11 21.2386 11 24C11 25.1046 10.1046 26 9 26C7.89543 26 7 25.1046 7 24C7 19.0294 11.0294 15 16 15ZM26.359 6.32642L26.3057 6.37975C25.2671 7.43375 24.5226 8.77147 24.1916 10.2555C27.1359 12.0114 29.4839 14.6911 30.8113 17.9358L30.915 18.198L31.2899 18.1325C31.7111 18.0666 32.1378 18.025 32.5683 18.0084L33 18C34.2402 18 35.4326 18.2053 36.5448 18.5837C36.939 18.3124 37.3064 18.006 37.6435 17.6703L37.671 17.6404L37.4962 17.6569C37.3704 17.666 37.2442 17.6728 37.1177 17.6774L36.7368 17.6842C30.9815 17.6842 26.3158 13.0186 26.3158 7.26317C26.3158 7.00858 26.325 6.75533 26.3431 6.50378L26.359 6.32642Z" fill="url(#paint0_linear_2034_237)"/>
<defs>
<linearGradient id="paint0_linear_2034_237" x1="22" y1="0.195557" x2="22" y2="45.0005" gradientUnits="userSpaceOnUse">
<stop stop-color="white" stop-opacity="0.8"/>
<stop offset="1" stop-color="white"/>
</linearGradient>
</defs>
</svg>
