<svg width="44" height="40" viewBox="0 0 44 40" fill="none" xmlns="http://www.w3.org/2000/svg">
<path fill-rule="evenodd" clip-rule="evenodd" d="M15.7428 31.143C16.7195 31.5337 17.2185 32.6081 16.9094 33.5954L16.857 33.7428L14.857 38.7428C14.4467 39.7683 13.2828 40.2672 12.2572 39.857C11.2805 39.4663 10.7815 38.3919 11.0906 37.4046L11.143 37.2572L13.143 32.2572C13.5533 31.2317 14.7172 30.7328 15.7428 31.143ZM6.74278 31.143C7.71951 31.5337 8.21848 32.6081 7.90941 33.5954L7.85695 33.7428L5.85695 38.7428C5.44673 39.7683 4.28279 40.2672 3.25722 39.857C2.28049 39.4663 1.78152 38.3919 2.09059 37.4046L2.14305 37.2572L4.14305 32.2572C4.55327 31.2317 5.71721 30.7328 6.74278 31.143ZM24.7428 31.143C25.7195 31.5337 26.2185 32.6081 25.9094 33.5954L25.857 33.7428L23.857 38.7428C23.4467 39.7683 22.2828 40.2672 21.2572 39.857C20.2805 39.4663 19.7815 38.3919 20.0906 37.4046L20.143 37.2572L22.143 32.2572C22.5533 31.2317 23.7172 30.7328 24.7428 31.143ZM33.7428 31.143C34.7195 31.5337 35.2185 32.6081 34.9094 33.5954L34.857 33.7428L32.857 38.7428C32.4467 39.7683 31.2828 40.2672 30.2572 39.857C29.2805 39.4663 28.7815 38.3919 29.0906 37.4046L29.143 37.2572L31.143 32.2572C31.5533 31.2317 32.7172 30.7328 33.7428 31.143ZM42.7428 31.143C43.7195 31.5337 44.2185 32.6081 43.9094 33.5954L43.857 33.7428L41.857 38.7428C41.4467 39.7683 40.2828 40.2672 39.2572 39.857C38.2805 39.4663 37.7815 38.3919 38.0906 37.4046L38.143 37.2572L40.143 32.2572C40.5533 31.2317 41.7172 30.7328 42.7428 31.143ZM13.2428 22.143C14.2195 22.5337 14.7185 23.6081 14.4094 24.5954L14.357 24.7428L12.357 29.7428C11.9467 30.7683 10.7828 31.2672 9.75722 30.857C8.78049 30.4663 8.28152 29.3919 8.59059 28.4046L8.64305 28.2572L10.643 23.2572C11.0533 22.2317 12.2172 21.7328 13.2428 22.143ZM22.2428 22.143C23.2195 22.5337 23.7185 23.6081 23.4094 24.5954L23.357 24.7428L21.357 29.7428C20.9467 30.7683 19.7828 31.2672 18.7572 30.857C17.7805 30.4663 17.2815 29.3919 17.5906 28.4046L17.643 28.2572L19.643 23.2572C20.0533 22.2317 21.2172 21.7328 22.2428 22.143ZM31.2428 22.143C32.2195 22.5337 32.7185 23.6081 32.4094 24.5954L32.357 24.7428L30.357 29.7428C29.9467 30.7683 28.7828 31.2672 27.7572 30.857C26.7805 30.4663 26.2815 29.3919 26.5906 28.4046L26.643 28.2572L28.643 23.2572C29.0533 22.2317 30.2172 21.7328 31.2428 22.143ZM40.2428 22.143C41.2195 22.5337 41.7185 23.6081 41.4094 24.5954L41.357 24.7428L39.357 29.7428C38.9467 30.7683 37.7828 31.2672 36.7572 30.857C35.7805 30.4663 35.2815 29.3919 35.5906 28.4046L35.643 28.2572L37.643 23.2572C38.0533 22.2317 39.2172 21.7328 40.2428 22.143ZM16 0C22.6037 0 28.3965 4.033 30.8113 9.9358L30.915 10.198L31.2899 10.1325C31.7111 10.0666 32.1378 10.025 32.5683 10.0083L33 10C38.2068 10 42.6688 13.6448 43.7528 18.6725C43.9857 19.7522 43.2991 20.8163 42.2193 21.0491C41.1396 21.2819 40.0755 20.5953 39.8427 19.5156C39.1538 16.3206 36.313 14 33 14C32.0792 14 31.1875 14.1768 30.359 14.5164C29.2272 14.9802 27.9479 14.3286 27.6577 13.1404C26.3565 7.81445 21.5606 4 16 4C9.37258 4 4 9.37258 4 16C4 18.2325 4.60872 20.3707 5.74365 22.2335C6.0488 22.7343 6.39042 23.2123 6.76546 23.6637C7.4714 24.5132 7.35499 25.7742 6.50544 26.4801C5.6559 27.1861 4.39493 27.0697 3.68899 26.2201C3.18954 25.6191 2.73444 24.9822 2.32775 24.3147C0.813452 21.8294 0 18.972 0 16C0 7.16344 7.16344 0 16 0ZM16 7C17.1046 7 18 7.89543 18 9C18 10.1046 17.1046 11 16 11C13.2386 11 11 13.2386 11 16C11 17.1046 10.1046 18 9 18C7.89543 18 7 17.1046 7 16C7 11.0294 11.0294 7 16 7Z" fill="url(#paint0_linear_2034_269)"/>
<defs>
<linearGradient id="paint0_linear_2034_269" x1="22.0003" y1="0" x2="22.0003" y2="40.0005" gradientUnits="userSpaceOnUse">
<stop stop-color="white" stop-opacity="0.8"/>
<stop offset="1" stop-color="white"/>
</linearGradient>
</defs>
</svg>
