<svg width="42" height="40" viewBox="0 0 42 40" fill="none" xmlns="http://www.w3.org/2000/svg">
<path fill-rule="evenodd" clip-rule="evenodd" d="M18.0452 0.308172L18.2138 0.345744C19.2246 0.616582 19.846 1.61511 19.6656 2.62665L19.628 2.79523L17.6461 10.1908L20.999 15.9991L24.3539 10.1908L22.372 2.79523C22.0861 1.7283 22.7193 0.631628 23.7862 0.345744C24.797 0.0749073 25.8345 0.628923 26.1839 1.59517L26.2357 1.75996L27.1824 5.29171L28.768 2.54555C29.3202 1.58896 30.5434 1.26121 31.5 1.81349C32.4131 2.34068 32.7532 3.47915 32.3019 4.41354L32.2321 4.54555L30.6465 7.29171L34.1785 6.34574C35.1893 6.07491 36.2268 6.62892 36.5762 7.59517L36.628 7.75996C36.8988 8.77074 36.3448 9.80821 35.3786 10.1577L35.2138 10.2094L27.8181 12.1908L24.464 17.9991L31.171 18L36.5858 12.5858C37.3668 11.8048 38.6332 11.8048 39.4142 12.5858C40.1542 13.3258 40.1931 14.5012 39.531 15.287L39.4142 15.4142L36.828 18H40C41.1046 18 42 18.8955 42 20C42 21.0544 41.1841 21.9182 40.1493 21.9945L40 22H36.828L39.4142 24.5858C40.1542 25.3258 40.1931 26.5012 39.531 27.287L39.4142 27.4142C38.6743 28.1542 37.4988 28.1931 36.713 27.5311L36.5858 27.4142L31.171 22L24.463 21.9991L27.8176 27.8084L35.2138 29.7906C36.2807 30.0765 36.9139 31.1732 36.628 32.2401C36.3572 33.2509 35.3586 33.8723 34.3471 33.6919L34.1785 33.6543L30.646 32.7075L32.2321 35.4545C32.7843 36.4111 32.4566 37.6343 31.5 38.1866C30.5869 38.7137 29.4309 38.4391 28.8473 37.581L28.768 37.4545L27.1819 34.7075L26.2357 38.2401C25.9649 39.2509 24.9663 39.8723 23.9548 39.6919L23.7862 39.6543C22.7754 39.3835 22.154 38.3849 22.3344 37.3734L22.372 37.2048L24.3534 29.8084L20.999 24.0001L17.6466 29.8084L19.628 37.2048C19.9139 38.2718 19.2807 39.3684 18.2138 39.6543C17.203 39.9251 16.1655 39.3711 15.8161 38.4049L15.7643 38.2401L14.8181 34.7075L13.232 37.4545C12.6798 38.4111 11.4566 38.7388 10.5 38.1866C9.5869 37.6594 9.24676 36.5209 9.69807 35.5865L9.76795 35.4545L11.3539 32.7075L7.82149 33.6543C6.81071 33.9251 5.77324 33.3711 5.42375 32.4049L5.372 32.2401C5.10116 31.2293 5.65517 30.1918 6.62142 29.8424L6.78621 29.7906L14.1824 27.8084L17.536 21.9991L10.828 22L5.41421 27.4142C4.63316 28.1953 3.36683 28.1953 2.58579 27.4142C1.84585 26.6743 1.8069 25.4988 2.46895 24.713L2.58579 24.5858L5.171 22H2C0.89543 22 0 21.1046 0 20C0 18.9457 0.815878 18.0819 1.85074 18.0055L2 18H5.171L2.58579 15.4142C1.84585 14.6743 1.8069 13.4988 2.46895 12.713L2.58579 12.5858C3.32573 11.8459 4.50121 11.8069 5.287 12.469L5.41421 12.5858L10.828 18L17.535 17.9991L14.1819 12.1908L6.78621 10.2094C5.71928 9.92356 5.08611 8.82689 5.372 7.75996C5.64283 6.74918 6.64136 6.12771 7.6529 6.30817L7.82149 6.34574L11.3534 7.29171L9.76795 4.54555C9.21566 3.58896 9.54342 2.36578 10.5 1.81349C11.4131 1.28631 12.5691 1.56098 13.1527 2.41902L13.232 2.54555L14.8176 5.29171L15.7643 1.75996C16.0351 0.74918 17.0337 0.127711 18.0452 0.308172Z" fill="url(#paint0_linear_2034_27)"/>
<defs>
<linearGradient id="paint0_linear_2034_27" x1="21" y1="0.2771" x2="21" y2="39.723" gradientUnits="userSpaceOnUse">
<stop stop-color="white" stop-opacity="0.8"/>
<stop offset="1" stop-color="white"/>
</linearGradient>
</defs>
</svg>
