<svg width="44" height="42" viewBox="0 0 44 42" fill="none" xmlns="http://www.w3.org/2000/svg">
<path fill-rule="evenodd" clip-rule="evenodd" d="M22.9713 18.2517C23.8909 18.7626 24.2502 19.8913 23.819 20.8317L23.7483 20.9713L20.079 27.575L27.3922 29.0388C28.6717 29.2947 29.3547 30.6787 28.8159 31.8385L28.7483 31.9713L23.7483 40.9713C23.2119 41.9369 21.9943 42.2847 21.0287 41.7483C20.1091 41.2374 19.7498 40.1087 20.181 39.1683L20.2517 39.0287L23.92 32.424L16.6078 30.9612C15.3283 30.7053 14.6453 29.3213 15.1841 28.1615L15.2517 28.0287L20.2517 19.0287C20.7881 18.0631 22.0057 17.7153 22.9713 18.2517ZM14.7428 31.143C15.7195 31.5337 16.2185 32.6081 15.9094 33.5954L15.857 33.7428L13.857 38.7428C13.4467 39.7683 12.2828 40.2672 11.2572 39.857C10.2805 39.4663 9.78152 38.3919 10.0906 37.4046L10.143 37.2572L12.143 32.2572C12.5533 31.2317 13.7172 30.7328 14.7428 31.143ZM7.74278 31.143C8.71951 31.5337 9.21848 32.6081 8.90941 33.5954L8.85695 33.7428L6.85695 38.7428C6.44673 39.7683 5.28279 40.2672 4.25722 39.857C3.28049 39.4663 2.78152 38.3919 3.09059 37.4046L3.14305 37.2572L5.14305 32.2572C5.55327 31.2317 6.71721 30.7328 7.74278 31.143ZM34.7428 31.143C35.7195 31.5337 36.2185 32.6081 35.9094 33.5954L35.857 33.7428L33.857 38.7428C33.4467 39.7683 32.2828 40.2672 31.2572 39.857C30.2805 39.4663 29.7815 38.3919 30.0906 37.4046L30.143 37.2572L32.143 32.2572C32.5533 31.2317 33.7172 30.7328 34.7428 31.143ZM41.7428 31.143C42.7195 31.5337 43.2185 32.6081 42.9094 33.5954L42.857 33.7428L40.857 38.7428C40.4467 39.7683 39.2828 40.2672 38.2572 39.857C37.2805 39.4663 36.7815 38.3919 37.0906 37.4046L37.143 37.2572L39.143 32.2572C39.5533 31.2317 40.7172 30.7328 41.7428 31.143ZM16 0C22.6037 0 28.3965 4.033 30.8113 9.9358L30.915 10.198L31.2899 10.1325C31.7111 10.0666 32.1378 10.025 32.5683 10.0083L33 10C39.0751 10 44 14.9249 44 21C44 25.158 41.6712 28.9033 38.0438 30.7776C37.0625 31.2847 35.8559 30.9002 35.3489 29.9189C34.8418 28.9376 35.2263 27.731 36.2076 27.224C38.5186 26.0298 40 23.6474 40 21C40 17.134 36.866 14 33 14C32.0792 14 31.1875 14.1768 30.359 14.5164C29.2272 14.9802 27.9479 14.3286 27.6577 13.1404C26.3565 7.81445 21.5606 4 16 4C9.37258 4 4 9.37258 4 16C4 20.9492 7.02363 25.3354 11.5408 27.1447C12.5662 27.5554 13.0645 28.7196 12.6538 29.745C12.2431 30.7704 11.0789 31.2687 10.0535 30.858C4.03114 28.4458 0 22.598 0 16C0 7.16344 7.16344 0 16 0ZM16 7C17.1046 7 18 7.89543 18 9C18 10.1046 17.1046 11 16 11C13.2386 11 11 13.2386 11 16C11 17.1046 10.1046 18 9 18C7.89543 18 7 17.1046 7 16C7 11.0294 11.0294 7 16 7Z" fill="url(#paint0_linear_2034_280)"/>
<defs>
<linearGradient id="paint0_linear_2034_280" x1="22" y1="0" x2="22" y2="42.0004" gradientUnits="userSpaceOnUse">
<stop stop-color="white" stop-opacity="0.8"/>
<stop offset="1" stop-color="white"/>
</linearGradient>
</defs>
</svg>
