<svg width="44" height="32" viewBox="0 0 44 32" fill="none" xmlns="http://www.w3.org/2000/svg">
<path fill-rule="evenodd" clip-rule="evenodd" d="M16 0C20.165 0 24.0075 1.6043 26.8833 4.27017C25.4388 3.46159 23.7733 3 22 3C20.3655 3 18.8225 3.39216 17.4601 4.08752C16.981 4.03005 16.4935 4 16 4C9.37258 4 4 9.37258 4 16C4 22.308 8.88498 27.5284 15.1409 27.9698L15.2192 27.9769L15.2966 27.9869L15.369 28.0002L17.4163 28.0005C18.188 29.7662 19.9499 31 22 31C24.0501 31 25.812 29.7662 26.5837 28.0005L32.9711 28.0002L33.2075 27.997C36.9846 27.8876 40 24.7889 40 21C40 17.134 36.866 14 33 14C32.6461 14 32.2964 14.0261 31.9531 14.0776C31.9851 13.7184 32 13.3585 32 12.998C31.9998 12.114 31.8848 11.2569 31.6694 10.4406L31.57 10.093L31.7128 10.0747C31.996 10.0417 32.2813 10.0195 32.5683 10.0083L33 10C39.0751 10 44 14.9249 44 21C44 26.9545 39.262 31.8234 33.2943 31.996L33 32H15C14.849 32 14.7019 31.9833 14.5604 31.9515L14.468 31.927L14.2043 31.9002C6.28258 31.0157 0.167206 24.3732 0.00337172 16.3313L0 16C0 7.16344 7.16344 0 16 0ZM22 24C23.1046 24 24 24.8954 24 26C24 27.1046 23.1046 28 22 28C20.8954 28 20 27.1046 20 26C20 24.8954 20.8954 24 22 24ZM22 6C25.8653 6 28.9989 9.13292 29 12.998C29 13.5906 28.9477 14.1805 28.8434 14.7684C28.4389 17.0488 26.7319 18.8786 24.4851 19.4403C24.2 19.5116 24 19.7677 24 20.0616V21C24 22.1046 23.1046 23 22 23C20.8954 23 20 22.1046 20 21V20.0616C20 17.9322 21.4492 16.0762 23.5149 15.5597C24.2315 15.3806 24.7759 14.797 24.9049 14.0698C24.9684 13.7116 25 13.3555 25 13C25 11.3431 23.6569 10 22 10C20.3431 10 19 11.3431 19 13C19 14.1046 18.1046 15 17 15C15.8954 15 15 14.1046 15 13C15 9.13401 18.134 6 22 6Z" fill="url(#paint0_linear_2034_323)"/>
<defs>
<linearGradient id="paint0_linear_2034_323" x1="22" y1="0" x2="22" y2="32" gradientUnits="userSpaceOnUse">
<stop stop-color="white" stop-opacity="0.8"/>
<stop offset="1" stop-color="white"/>
</linearGradient>
</defs>
</svg>
